<?xml version="1.0" standalone="no"?>
<!DOCTYPE svg PUBLIC "-//W3C//DTD SVG 20010904//EN"
 "http://www.w3.org/TR/2001/REC-SVG-20010904/DTD/svg10.dtd">
<svg version="1.0" xmlns="http://www.w3.org/2000/svg"
 width="512.000000pt" height="512.000000pt" viewBox="0 0 512.000000 512.000000"
 preserveAspectRatio="xMidYMid meet">

<g transform="translate(0.000000,512.000000) scale(0.100000,-0.100000)"
fill="#000000" stroke="none">
<path d="M1606 5104 c-134 -32 -281 -137 -356 -254 -17 -26 -75 -165 -129
-309 -107 -282 -131 -332 -186 -380 -51 -45 -85 -60 -366 -166 -138 -52 -273
-108 -300 -125 -72 -47 -173 -159 -208 -233 -59 -123 -74 -248 -47 -378 9 -39
61 -170 129 -320 124 -272 137 -309 137 -379 0 -70 -13 -107 -137 -379 -145
-322 -163 -400 -128 -564 30 -144 138 -296 264 -371 31 -18 174 -78 319 -132
281 -105 329 -132 388 -214 19 -27 72 -152 132 -312 56 -147 116 -291 135
-320 78 -122 224 -224 364 -253 164 -35 242 -17 564 128 272 124 309 137 379
137 70 0 107 -13 379 -137 259 -117 338 -143 441 -143 79 0 180 24 256 60 80
39 191 140 238 219 18 31 78 174 132 319 106 282 132 329 214 388 27 19 150
71 305 129 143 54 285 113 316 131 126 76 234 227 264 371 35 162 17 242 -120
543 -121 265 -145 331 -145 398 0 72 13 108 137 381 145 322 163 400 128 564
-30 144 -138 295 -264 371 -31 18 -173 77 -316 131 -155 58 -278 110 -305 129
-82 59 -108 106 -214 388 -54 145 -114 288 -132 319 -47 79 -158 180 -238 219
-76 36 -177 60 -256 60 -103 0 -182 -26 -441 -143 -272 -124 -309 -137 -379
-137 -70 0 -107 14 -378 136 -152 70 -280 121 -320 129 -84 18 -179 18 -256
-1z m195 -204 c29 -6 164 -60 299 -122 135 -61 274 -120 310 -130 80 -22 210
-24 292 -2 33 8 174 67 313 130 145 65 277 119 309 125 64 12 142 1 211 -30
50 -22 126 -88 155 -136 11 -18 63 -146 115 -284 52 -139 107 -276 122 -304
36 -67 153 -184 220 -220 28 -15 165 -70 304 -122 138 -52 266 -104 284 -115
119 -73 190 -233 165 -367 -6 -33 -57 -159 -122 -302 -61 -135 -120 -275 -130
-311 -22 -78 -24 -213 -4 -290 8 -30 67 -170 130 -311 68 -149 120 -279 126
-312 13 -65 2 -142 -29 -212 -22 -50 -88 -126 -137 -155 -18 -12 -146 -63
-284 -115 -139 -52 -275 -107 -303 -122 -67 -36 -185 -153 -220 -220 -15 -28
-70 -165 -122 -304 -52 -138 -104 -267 -116 -285 -53 -86 -165 -155 -276 -170
-74 -9 -142 13 -410 135 -274 124 -326 141 -445 141 -115 0 -173 -19 -459
-148 -143 -65 -269 -116 -302 -122 -65 -13 -142 -2 -212 29 -50 22 -126 88
-155 136 -11 18 -63 146 -115 284 -52 139 -107 276 -122 304 -36 67 -153 184
-220 220 -28 15 -165 70 -304 122 -138 52 -267 104 -285 116 -52 32 -121 115
-142 172 -52 138 -42 184 100 496 130 287 148 343 148 461 0 118 -18 174 -148
461 -142 312 -152 358 -100 496 21 57 90 140 142 172 18 12 147 64 285 116
139 52 276 107 304 122 67 36 184 153 220 220 15 28 70 165 122 304 52 138
104 266 115 284 25 40 97 108 139 129 35 18 125 44 157 45 12 1 45 -4 75 -9z"/>
<path d="M1680 4036 c-281 -80 -450 -358 -385 -635 41 -173 174 -322 340 -383
81 -29 220 -36 303 -14 182 46 328 182 383 355 29 91 29 231 0 322 -54 171
-200 309 -376 354 -70 18 -202 18 -265 1z m274 -230 c60 -29 113 -82 148 -148
19 -36 23 -58 23 -138 0 -80 -4 -102 -23 -138 -35 -66 -88 -119 -150 -149 -77
-38 -190 -39 -269 -4 -130 58 -211 212 -183 348 15 73 31 104 83 160 95 103
245 131 371 69z"/>
<path d="M3265 3831 c-11 -5 -27 -17 -36 -27 -9 -11 -354 -551 -768 -1200
-574 -904 -751 -1189 -751 -1212 0 -46 18 -78 55 -97 40 -22 93 -14 122 18 12
12 357 551 769 1197 497 781 749 1186 752 1208 11 83 -66 144 -143 113z"/>
<path d="M3173 2115 c-176 -49 -321 -186 -374 -354 -29 -91 -29 -231 0 -322
56 -176 218 -322 399 -360 78 -16 214 -7 287 19 167 61 299 209 340 383 61
259 -87 529 -340 621 -77 28 -236 34 -312 13z m265 -225 c108 -47 186 -168
186 -290 0 -121 -78 -242 -186 -291 -80 -35 -193 -34 -270 4 -105 51 -168 146
-176 262 -5 85 8 138 51 201 89 132 248 178 395 114z"/>
</g>
</svg>
