<svg width="191" height="190" viewBox="0 0 191 190" fill="none" xmlns="http://www.w3.org/2000/svg">
<ellipse cx="95.6004" cy="95" rx="69" ry="68" fill="#0093FD"/>
<circle cx="95.6004" cy="95" r="95" fill="#0093FD" fill-opacity="0.09"/>
<path fill-rule="evenodd" clip-rule="evenodd" d="M88.1586 79C85.7549 79 83.5813 79.6982 82.0036 81.4007C80.411 83.1194 79.6004 85.6717 79.6004 88.9459V101.054C79.6004 104.328 80.411 106.881 82.0036 108.599C83.5813 110.302 85.7549 111 88.1586 111H103.042C105.446 111 107.62 110.302 109.197 108.599C110.79 106.881 111.6 104.328 111.6 101.054V88.9459C111.6 85.6717 110.79 83.1194 109.197 81.4007C107.62 79.6982 105.446 79 103.042 79H88.1586ZM106.359 88.7078C106.847 88.2697 106.937 87.455 106.56 86.888C106.183 86.3211 105.482 86.2166 104.994 86.6547L96.7378 94.0687C96.0679 94.6705 95.1328 94.6705 94.4627 94.0687L86.2067 86.6547C85.7189 86.2166 85.0178 86.3211 84.6409 86.888C84.2639 87.455 84.3538 88.2697 84.8416 88.7078L93.0977 96.1219C94.5718 97.4455 96.6289 97.4455 98.103 96.1219L106.359 88.7078Z" fill="white"/>
<path d="M104.878 105.047V104.126C104.878 101.365 107.117 99.1263 109.878 99.1263C112.64 99.1263 114.878 101.365 114.878 104.126V105.047C115.448 105.132 115.928 105.307 116.313 105.692L104.878 105.047ZM104.878 105.047C104.309 105.132 103.829 105.307 103.444 105.692C103.043 106.093 102.87 106.598 102.79 107.198C102.712 107.776 102.712 108.511 102.712 109.423L102.712 109.46L102.712 109.496C102.712 110.408 102.712 111.143 102.79 111.721C102.87 112.321 103.043 112.826 103.444 113.227C103.845 113.629 104.351 113.801 104.951 113.882C105.529 113.96 106.264 113.96 107.175 113.96H107.212H112.545H112.582C113.493 113.96 114.228 113.96 114.806 113.882C115.406 113.801 115.912 113.629 116.313 113.227C116.714 112.826 116.887 112.321 116.967 111.721C117.045 111.143 117.045 110.408 117.045 109.496V109.46V109.423C117.045 108.511 117.045 107.776 116.967 107.198C116.887 106.598 116.714 106.093 116.313 105.692L104.878 105.047ZM106.878 104.126C106.878 102.469 108.222 101.126 109.878 101.126C111.535 101.126 112.878 102.469 112.878 104.126V104.96C112.771 104.96 112.66 104.96 112.547 104.96H112.545H107.212H107.21C107.097 104.96 106.986 104.96 106.878 104.96V104.126ZM110.712 109.46C110.712 109.92 110.339 110.293 109.878 110.293C109.418 110.293 109.045 109.92 109.045 109.46C109.045 108.999 109.418 108.626 109.878 108.626C110.339 108.626 110.712 108.999 110.712 109.46Z" fill="white" stroke="#0093FD"/>
</svg>
